# xmcd
#
# Track frame offsets: 
#        150
#        15160
#        32139
#        45883
#        72129
#        92229
#        116521
#        132221
#        149665
#        167019
#        184618
#        207848
#
# Disc length: 2956 seconds
#
# Revision: 3
# Processed by: cddbd v1.5.2PL0 Copyright (c) Steve Scherf et al.
# Submitted via: ExactAudioCopyFreeDBPlugin 1.0
#
DISCID=9a0b8a0c
DTITLE=Various Artist - Body and Soul Of The 70s - A Body and Soul Collec
DTITLE=tion
DYEAR=2003
DGENRE=Soul
TTITLE0=The Spinners - One Of A Kind
TTITLE1=Gladys Kinght and The Pips - You Are The Best Thing
TTITLE2=Al Green - L-O-V-E
TTITLE3=Pebo Bryson - I'm So Into You
TTITLE4=The Manhattans - Kiss And Say Goodbye
TTITLE5=Natalie Cole - Our Love
TTITLE6=Al Wilson - Show And Tell
TTITLE7=Marilyn McCoo and Billy Davis - You Don't Have To Be A Star
TTITLE8=Brook Benton - Rainy Night In Georgia
TTITLE9=Shirley Brown - Woman To Woman
TTITLE10=The Chi-Lites - Have You Seen Her
TTITLE11=The Originals - The Bells
EXTD=YEAR: 2003
EXTT0=
EXTT1=
EXTT2=
EXTT3=
EXTT4=
EXTT5=
EXTT6=
EXTT7=
EXTT8=
EXTT9=
EXTT10=
EXTT11=
PLAYORDER=
